{"title":"The.Stepfather.2009.SWESUB.DVDRip.XviD.AC3.(5.1).-Zen_Bud","uid":5630902,"size":1468983414,"categoryP":"video","categoryS":"movies","magnet":"?xt=urn:btih:57abaff094ba43e373192a026fa94924c9a87203&amp;dn=The.Stepfather.2009.SWESUB.DVDRip.XviD.AC3.%285.1%29.-Zen_Bud&amp;tr=udp%3A%2F%2Ftracker.openbittorrent.com%3A80&amp;tr=udp%3A%2F%2Fopen.demonii.com%3A1337&amp;tr=udp%3A%2F%2Ftracker.coppersurfer.tk%3A6969&amp;tr=udp%3A%2F%2Fexodus.desync.com%3A6969","seeders":1,"leechers":0,"uploader":"Zen_Bud","files":-1,"time":1276673690,"description":"General\nComplete name                    : The.Stepfather.avi\nFormat                           : AVI\nFile size                        : 1.37 GiB\nDuration                         : 1h 37mn\nOverall bit rate                 : 1 999 Kbps\n\nVideo\nID                               : 0\nFormat                           : MPEG-4 Visual\nCodec ID/Hint                    : XviD\nDuration                         : 1h 37mn\nBit rate                         : 1 540 Kbps\nWidth                            : 720 pixels\nHeight                           : 428 pixels\nDisplay aspect ratio             : 2.35:1\nStream size                      : 1.05 GiB (77%)\nWriting library                  : XviD 1.1.2 (UTC 2006-11-01)\n\nAudio\n\nFormat                           : AC-3\nDuration                         : 1h 37mn\nBit rate                         : 448 Kbps\nChannel(s)                       : 6 channels\nChannel positions                : Front: L C R, Side: L R, LFE\nSampling rate                    : 48.0 KHz\nStream size                      : 314 MiB (22%)\n\n\n","torrent":{"xt":"urn:btih:57abaff094ba43e373192a026fa94924c9a87203","amp;dn":"The.Stepfather.2009.SWESUB.DVDRip.XviD.AC3.%285.1%29.-Zen_Bud","amp;tr":["udp%3A%2F%2Ftracker.openbittorrent.com%3A80","udp%3A%2F%2Fopen.demonii.com%3A1337","udp%3A%2F%2Ftracker.coppersurfer.tk%3A6969","udp%3A%2F%2Fexodus.desync.com%3A6969"],"infoHash":"57abaff094ba43e373192a026fa94924c9a87203","infoHashBuffer":{"type":"Buffer","data":[87,171,175,240,148,186,67,227,115,25,42,2,111,169,73,36,201,168,114,3]},"announce":[],"urlList":[]}}